<svg width="300" height="36" viewBox="0 0 300 36" fill="none" xmlns="http://www.w3.org/2000/svg">
<path d="M5.64 30.728C2.184 27.24 0.456 23.032 0.456 18.104C0.456 13.176 2.184 8.968 5.64 5.48C9.096 1.992 13.256 0.247998 18.12 0.247998C20.872 0.247998 23.496 0.871998 25.992 2.12C26.952 2.6 27.432 3.224 27.432 3.992V7.016C27.432 8.104 27.224 8.648 26.808 8.648C26.712 8.648 26.552 8.6 26.328 8.504C26.136 8.376 25.96 8.248 25.8 8.12L25.56 7.928C23.224 6.2 20.744 5.336 18.12 5.336C14.696 5.336 11.848 6.568 9.576 9.032C7.336 11.496 6.216 14.52 6.216 18.104C6.216 21.688 7.336 24.712 9.576 27.176C11.848 29.64 14.696 30.872 18.12 30.872C20.744 30.872 23.224 30.008 25.56 28.28C26.168 27.8 26.584 27.56 26.808 27.56C27.224 27.56 27.432 28.104 27.432 29.192V32.216C27.432 32.984 26.952 33.608 25.992 34.088C23.496 35.336 20.872 35.96 18.12 35.96C13.256 35.96 9.096 34.216 5.64 30.728ZM51.4125 32.648C49.2045 34.856 46.5325 35.96 43.3965 35.96C40.2605 35.96 37.5885 34.856 35.3805 32.648C33.1725 30.44 32.0685 27.768 32.0685 24.632C32.0685 21.496 33.1725 18.824 35.3805 16.616C37.5885 14.408 40.2605 13.304 43.3965 13.304C46.5325 13.304 49.2045 14.408 51.4125 16.616C53.6205 18.824 54.7245 21.496 54.7245 24.632C54.7245 27.768 53.6205 30.44 51.4125 32.648ZM47.9565 19.736C46.7725 18.392 45.2525 17.72 43.3965 17.72C41.5405 17.72 40.0045 18.392 38.7885 19.736C37.6045 21.048 37.0125 22.664 37.0125 24.584C37.0125 26.504 37.6045 28.136 38.7885 29.48C40.0045 30.792 41.5405 31.448 43.3965 31.448C45.2525 31.448 46.7725 30.792 47.9565 29.48C49.1725 28.136 49.7805 26.504 49.7805 24.584C49.7805 22.664 49.1725 21.048 47.9565 19.736ZM76.9905 23.672V33.56C76.9905 33.976 76.8465 34.328 76.5585 34.616C76.2705 34.872 75.9345 35 75.5505 35H73.9185C73.5345 35 73.1985 34.872 72.9105 34.616C72.6225 34.328 72.4785 33.976 72.4785 33.56V24.584C72.4785 22.664 72.1425 21.048 71.4705 19.736C70.8305 18.424 69.7585 17.768 68.2545 17.768C66.2385 17.768 64.6385 19.048 63.4545 21.608V33.56C63.4545 33.976 63.3105 34.328 63.0225 34.616C62.7345 34.872 62.3985 35 62.0145 35H60.3825C59.9985 35 59.6625 34.872 59.3745 34.616C59.0865 34.328 58.9425 33.976 58.9425 33.56V15.704C58.9425 15.288 59.0865 14.952 59.3745 14.696C59.6625 14.408 59.9985 14.264 60.3825 14.264H62.0145C62.3985 14.264 62.7345 14.408 63.0225 14.696C63.3105 14.952 63.4545 15.256 63.4545 15.608C65.0545 14.072 66.6545 13.304 68.2545 13.304C74.0785 13.304 76.9905 16.76 76.9905 23.672ZM92.0895 18.536C91.3855 18.056 90.4735 17.816 89.3535 17.816C88.6495 17.816 88.1055 17.992 87.7215 18.344C87.3695 18.696 87.1935 19.096 87.1935 19.544C87.1935 20.024 87.5295 20.488 88.2015 20.936C88.8735 21.352 89.6895 21.784 90.6495 22.232C91.6095 22.648 92.5695 23.128 93.5295 23.672C94.5215 24.216 95.3535 24.936 96.0255 25.832C96.6975 26.728 97.0335 27.736 97.0335 28.856C97.0335 31.064 96.3615 32.808 95.0175 34.088C93.7055 35.336 91.8175 35.96 89.3535 35.96C87.6895 35.96 86.1855 35.624 84.8415 34.952C83.4975 34.28 82.4415 33.464 81.6735 32.504C81.3535 32.088 81.1935 31.752 81.1935 31.496C81.1935 31.112 81.3375 30.776 81.6255 30.488L82.9695 29C83.2575 28.712 83.5935 28.568 83.9775 28.568C84.3935 28.568 84.7455 28.744 85.0335 29.096C86.3455 30.792 87.7855 31.64 89.3535 31.64C90.0575 31.64 90.6975 31.432 91.2735 31.016C91.8815 30.6 92.1855 30.04 92.1855 29.336C92.1855 28.76 91.8335 28.2 91.1295 27.656C90.4575 27.112 89.6255 26.616 88.6335 26.168C87.6735 25.72 86.6975 25.24 85.7055 24.728C84.7135 24.216 83.8655 23.56 83.1615 22.76C82.4895 21.96 82.1535 21.064 82.1535 20.072C82.1535 18.12 82.8095 16.504 84.1215 15.224C85.4335 13.944 87.1775 13.304 89.3535 13.304C90.6975 13.304 91.7855 13.448 92.6175 13.736C93.4495 13.992 94.3135 14.456 95.2095 15.128C95.5615 15.384 95.7375 15.736 95.7375 16.184C95.7375 16.568 95.5935 16.904 95.3055 17.192L94.1055 18.536C93.8175 18.824 93.4815 18.968 93.0975 18.968C92.9695 18.968 92.8255 18.936 92.6655 18.872C92.5055 18.808 92.3775 18.744 92.2815 18.68L92.0895 18.536ZM101.364 25.592V15.704C101.364 15.288 101.508 14.952 101.796 14.696C102.084 14.408 102.42 14.264 102.804 14.264H104.436C104.82 14.264 105.156 14.408 105.444 14.696C105.732 14.952 105.876 15.288 105.876 15.704V24.68C105.876 26.6 106.196 28.216 106.836 29.528C107.508 30.84 108.596 31.496 110.1 31.496C112.116 31.496 113.716 30.216 114.9 27.656V15.704C114.9 15.288 115.044 14.952 115.332 14.696C115.62 14.408 115.956 14.264 116.34 14.264H117.972C118.356 14.264 118.692 14.408 118.98 14.696C119.268 14.952 119.412 15.288 119.412 15.704V33.56C119.412 33.976 119.268 34.328 118.98 34.616C118.692 34.872 118.356 35 117.972 35H116.34C115.956 35 115.62 34.872 115.332 34.616C115.044 34.328 114.9 34.008 114.9 33.656C113.3 35.192 111.7 35.96 110.1 35.96C104.276 35.96 101.364 32.504 101.364 25.592ZM140.681 21.32V33.56C140.681 33.976 140.537 34.328 140.249 34.616C139.961 34.872 139.625 35 139.241 35H137.609C137.225 35 136.889 34.872 136.601 34.616C136.313 34.328 136.169 33.976 136.169 33.56V24.344C136.169 23.416 136.153 22.648 136.121 22.04C136.089 21.4 136.009 20.696 135.881 19.928C135.753 19.128 135.529 18.536 135.209 18.152C134.889 17.736 134.489 17.528 134.009 17.528C132.345 17.528 130.905 18.808 129.689 21.368V33.56C129.689 33.976 129.545 34.328 129.257 34.616C128.969 34.872 128.633 35 128.249 35H126.617C126.233 35 125.897 34.872 125.609 34.616C125.321 34.328 125.177 33.976 125.177 33.56V15.704C125.177 15.288 125.321 14.952 125.609 14.696C125.897 14.408 126.233 14.264 126.617 14.264H128.249C128.633 14.264 128.969 14.408 129.257 14.696C129.545 14.952 129.689 15.256 129.689 15.608C131.161 14.072 132.761 13.304 134.489 13.304C135.961 13.304 137.097 13.528 137.897 13.976C138.697 14.424 139.321 15.112 139.769 16.04C141.305 14.216 142.953 13.304 144.713 13.304C145.961 13.304 147.017 13.496 147.881 13.88C148.777 14.232 149.465 14.696 149.945 15.272C150.457 15.816 150.841 16.568 151.097 17.528C151.385 18.488 151.561 19.432 151.625 20.36C151.721 21.256 151.769 22.36 151.769 23.672V33.56C151.769 33.976 151.625 34.328 151.337 34.616C151.049 34.872 150.713 35 150.329 35H148.697C148.313 35 147.977 34.872 147.689 34.616C147.401 34.328 147.257 33.976 147.257 33.56V24.344C147.257 23.736 147.241 23.224 147.209 22.808C147.209 22.392 147.193 21.896 147.161 21.32C147.129 20.744 147.049 20.264 146.921 19.88C146.825 19.464 146.697 19.064 146.537 18.68C146.409 18.296 146.217 18.008 145.961 17.816C145.705 17.624 145.401 17.528 145.049 17.528C143.513 17.528 142.057 18.792 140.681 21.32ZM161.189 18.488C160.677 18.776 160.325 18.92 160.133 18.92C159.749 18.92 159.381 18.744 159.029 18.392L157.829 17.048C157.605 16.824 157.493 16.536 157.493 16.184C157.493 15.736 157.653 15.4 157.973 15.176C159.893 13.928 162.245 13.304 165.029 13.304C167.973 13.304 170.181 14.12 171.653 15.752C173.125 17.352 173.861 19.336 173.861 21.704V33.56C173.861 33.976 173.717 34.328 173.429 34.616C173.141 34.872 172.805 35 172.421 35H170.741C170.069 35 169.605 34.664 169.349 33.992C168.197 35.304 166.453 35.96 164.117 35.96C161.813 35.96 159.893 35.304 158.357 33.992C156.821 32.648 156.053 30.984 156.053 29C156.053 26.568 156.933 24.792 158.693 23.672C160.453 22.552 162.613 21.992 165.173 21.992C166.869 21.992 168.261 22.152 169.349 22.472V21.272C169.349 20.248 168.853 19.4 167.861 18.728C166.869 18.056 165.925 17.72 165.029 17.72C163.365 17.72 162.085 17.976 161.189 18.488ZM169.349 28.328V26.744C168.133 26.36 166.677 26.168 164.981 26.168C162.005 26.168 160.517 27.112 160.517 29C160.517 29.512 160.853 30.088 161.525 30.728C162.229 31.336 163.093 31.64 164.117 31.64C166.741 31.64 168.485 30.536 169.349 28.328ZM183.595 33.56C183.595 33.976 183.451 34.328 183.163 34.616C182.875 34.872 182.539 35 182.155 35H180.523C180.139 35 179.803 34.872 179.515 34.616C179.227 34.328 179.083 33.976 179.083 33.56V2.168C179.083 1.752 179.227 1.416 179.515 1.16C179.803 0.871998 180.139 0.727998 180.523 0.727998H182.155C182.539 0.727998 182.875 0.871998 183.163 1.16C183.451 1.416 183.595 1.752 183.595 2.168V15.608C184.331 14.872 185.243 14.312 186.331 13.928C187.451 13.512 188.459 13.304 189.355 13.304C192.523 13.304 195.131 14.36 197.179 16.472C199.259 18.584 200.299 21.224 200.299 24.392C200.299 27.624 199.259 30.36 197.179 32.6C195.099 34.84 192.491 35.96 189.355 35.96C187.115 35.96 185.195 35.16 183.595 33.56ZM189.355 17.672C187.947 17.672 186.555 18.248 185.179 19.4C183.803 20.552 183.115 22.216 183.115 24.392C183.115 25.768 183.339 26.968 183.787 27.992C184.267 28.984 184.843 29.72 185.515 30.2C186.219 30.68 186.891 31.032 187.531 31.256C188.171 31.48 188.779 31.592 189.355 31.592C191.019 31.592 192.427 30.888 193.579 29.48C194.763 28.04 195.355 26.344 195.355 24.392C195.355 22.664 194.763 21.112 193.579 19.736C192.395 18.36 190.987 17.672 189.355 17.672ZM209.939 2.168V33.56C209.939 33.976 209.795 34.328 209.507 34.616C209.219 34.872 208.883 35 208.499 35H206.867C206.483 35 206.147 34.872 205.859 34.616C205.571 34.328 205.427 33.976 205.427 33.56V2.168C205.427 1.752 205.571 1.416 205.859 1.16C206.147 0.871998 206.483 0.727998 206.867 0.727998H208.499C208.883 0.727998 209.219 0.871998 209.507 1.16C209.795 1.416 209.939 1.752 209.939 2.168ZM230.056 23.24C229.544 19.56 227.848 17.72 224.968 17.72C222.088 17.72 220.392 19.56 219.88 23.24H230.056ZM232.888 32.936C230.616 34.952 227.976 35.96 224.968 35.96C221.864 35.96 219.352 34.872 217.432 32.696C215.544 30.52 214.6 27.832 214.6 24.632C214.6 21.432 215.544 18.744 217.432 16.568C219.352 14.392 221.864 13.304 224.968 13.304C228.072 13.304 230.568 14.392 232.456 16.568C234.376 18.744 235.336 21.432 235.336 24.632V25.256C235.336 25.672 235.192 26.024 234.904 26.312C234.616 26.568 234.28 26.696 233.896 26.696H219.88C220.36 28.232 220.984 29.416 221.752 30.248C222.552 31.048 223.624 31.448 224.968 31.448C226.632 31.448 228.184 30.856 229.624 29.672C229.944 29.384 230.28 29.24 230.632 29.24C231.016 29.24 231.352 29.384 231.64 29.672L232.888 30.92C233.176 31.208 233.32 31.544 233.32 31.928C233.32 32.248 233.176 32.584 232.888 32.936ZM265.488 11.624L265.296 12.584L261.696 22.232H269.28L265.68 12.584L265.488 11.624ZM271.056 27.08H259.92L257.472 33.56C257.12 34.52 256.544 35 255.744 35H253.824C252.736 35 252.192 34.792 252.192 34.376L252.336 33.56L264.624 1.592C264.784 1.016 265.072 0.727998 265.488 0.727998C265.68 0.727998 265.84 0.807998 265.968 0.967998C266.128 1.096 266.24 1.24 266.304 1.4L266.352 1.592L278.64 33.56C278.736 33.816 278.784 34.088 278.784 34.376C278.784 34.792 278.24 35 277.152 35H275.232C274.432 35 273.856 34.52 273.504 33.56L271.056 27.08ZM288.265 2.648V33.56C288.265 33.976 288.121 34.328 287.833 34.616C287.545 34.872 287.209 35 286.825 35H284.713C284.329 35 283.993 34.872 283.705 34.616C283.417 34.328 283.273 33.976 283.273 33.56V2.648C283.273 2.232 283.417 1.896 283.705 1.64C283.993 1.352 284.329 1.208 284.713 1.208H286.825C287.209 1.208 287.545 1.352 287.833 1.64C288.121 1.896 288.265 2.232 288.265 2.648ZM294.514 34.232C294.002 33.688 293.746 33.048 293.746 32.312C293.746 31.576 294.002 30.952 294.514 30.44C295.058 29.896 295.698 29.624 296.434 29.624C297.17 29.624 297.794 29.896 298.306 30.44C298.85 30.952 299.122 31.576 299.122 32.312C299.122 33.048 298.85 33.688 298.306 34.232C297.794 34.744 297.17 35 296.434 35C295.698 35 295.058 34.744 294.514 34.232Z" fill="black"/>
</svg>
